    <svg
      width="21"
      height="14"
      view-box="0 0 21 14"
      fill="none"
      xmlns="http://www.w3.org/2000/svg"
    >
      <title>meta</title>
      <g clip-path="url(#clip0_1258_5918)">
        <path
          d="M2.26479 9.23267C2.26479 10.0375 2.44052 10.6554 2.67021 11.0292C2.97135 11.5188 3.42052 11.7263 3.87844 11.7263C4.46906 11.7263 5.00938 11.579 6.05062 10.1313C6.88479 8.97099 7.86771 7.3423 8.52906 6.32126L9.64906 4.59141C10.4271 3.39005 11.3276 2.05456 12.3601 1.14932C13.203 0.410471 14.1123 0 15.0274 0C16.5637 0 18.0272 0.894974 19.1472 2.57351C20.3729 4.41183 20.9679 6.72733 20.9679 9.11686C20.9679 10.5374 20.6894 11.5812 20.2154 12.4058C19.7575 13.2032 18.865 14 17.3636 14V11.7263C18.6492 11.7263 18.97 10.5388 18.97 9.1799C18.97 7.24335 18.5208 5.09424 17.5314 3.55864C16.8292 2.46942 15.9192 1.80387 14.918 1.80387C13.8352 1.80387 12.9639 2.62482 11.9846 4.08859C11.464 4.86628 10.9295 5.81403 10.3294 6.88346L9.66875 8.0599C8.34167 10.4252 8.00552 10.964 7.34198 11.8531C6.17896 13.4099 5.18583 14 3.87844 14C2.3275 14 1.34677 13.3249 0.739375 12.3075C0.243542 11.4785 0 10.3908 0 9.15131L2.26479 9.23267Z"
          fill="#0081FB"
        />
        <path
          d="M1.78674 2.73403C2.82508 1.12513 4.32351 0 6.04216 0C7.03747 0 8.02695 0.296126 9.06018 1.14419C10.1904 2.07141 11.395 3.59822 12.8978 6.11455L13.4366 7.01759C14.7375 9.19602 15.4776 10.3168 15.9107 10.8452C16.4678 11.524 16.8579 11.7263 17.3647 11.7263C18.6502 11.7263 18.971 10.5388 18.971 9.1799L20.9689 9.11686C20.9689 10.5374 20.6904 11.5812 20.2164 12.4058C19.7585 13.2032 18.866 14 17.3647 14C16.4313 14 15.6045 13.7962 14.6901 12.9291C13.9872 12.2636 13.1654 11.0813 12.5332 10.0184L10.6527 6.86073C9.70914 5.27602 8.84362 4.09445 8.34268 3.55937C7.80383 2.98398 7.11112 2.28911 6.0057 2.28911C5.11101 2.28911 4.35122 2.92021 3.71539 3.88555L1.78674 2.73403Z"
          fill="url(#paint0_linear_1258_5918)"
        />
        <path
          d="M6.00469 2.28911C5.11 2.28911 4.35021 2.92021 3.71438 3.88555C2.81531 5.24963 2.26479 7.28147 2.26479 9.23267C2.26479 10.0375 2.44052 10.6554 2.67021 11.0292L0.739375 12.3075C0.243542 11.4785 0 10.3908 0 9.15131C0 6.89738 0.615417 4.54817 1.78573 2.73403C2.82406 1.12513 4.3225 0 6.04115 0L6.00469 2.28911Z"
          fill="url(#paint1_linear_1258_5918)"
        />
      </g>
      <defs>
        <linearGradient
          id="paint0_linear_1258_5918"
          x1="4.44893"
          y1="8.57592"
          x2="18.8868"
          y2="9.3013"
          gradientUnits="userSpaceOnUse"
        >
          <stop stop-color="#0064E1" />
          <stop offset="0.4" stop-color="#0064E1" />
          <stop offset="0.83" stop-color="#0073EE" />
          <stop offset="1" stop-color="#0082FB" />
        </linearGradient>
        <linearGradient
          id="paint1_linear_1258_5918"
          x1="3.28125"
          y1="10.1885"
          x2="3.28125"
          y2="4.8377"
          gradientUnits="userSpaceOnUse"
        >
          <stop stop-color="#0082FB" />
          <stop offset="1" stop-color="#0064E0" />
        </linearGradient>
        <clipPath id="clip0_1258_5918">
          <rect width="21" height="14" fill="white" />
        </clipPath>
      </defs>
    </svg>
